<svg viewBox="0 0 336 96" fill="none" xmlns="http://www.w3.org/2000/svg">
<path d="M3.46492 25.7274L40.7949 1.25547C43.3484 -0.418491 46.6516 -0.418489 49.2051 1.25547L86.5351 25.7274C88.6974 27.1449 90 29.5564 90 32.1419V63.8557C90 66.4412 88.6974 68.8527 86.5351 70.2702L49.2051 94.7421C46.6516 96.4161 43.3484 96.4161 40.7949 94.7421L3.46492 70.2702C1.30262 68.8527 0 66.4412 0 63.8557V32.1419C0 29.5564 1.30262 27.1449 3.46492 25.7274Z" fill="#0366D6"/>
<path d="M114.045 62.6585C123.077 62.6585 128.433 57.0686 128.433 47.8003C128.433 38.561 123.077 33 114.248 33H104V62.6585H114.045ZM109.37 58.0099V37.6486H113.944C119.965 37.6486 123.106 41.0084 123.106 47.8003C123.106 54.6212 119.965 58.0099 113.785 58.0099H109.37Z" fill="#24292E"/>
<path d="M142.614 63.093C147.796 63.093 151.357 60.5587 152.283 56.6921L147.39 56.1418C146.681 58.0244 144.944 59.0091 142.686 59.0091C139.299 59.0091 137.056 56.779 137.012 52.9703H152.5V51.3628C152.5 43.5572 147.81 40.125 142.339 40.125C135.97 40.125 131.816 44.8026 131.816 51.6669C131.816 58.6471 135.912 63.093 142.614 63.093ZM137.027 49.4367C137.186 46.5983 139.285 44.2088 142.411 44.2088C145.422 44.2088 147.448 46.4101 147.477 49.4367H137.027Z" fill="#24292E"/>
<path d="M156.512 71H161.752V59.154H161.969C162.794 60.7759 164.516 63.0495 168.338 63.0495C173.577 63.0495 177.5 58.8933 177.5 51.5655C177.5 44.1509 173.462 40.125 168.323 40.125C164.401 40.125 162.765 42.4855 161.969 44.093H161.665V40.4146H156.512V71ZM161.65 51.5366C161.65 47.221 163.503 44.4261 166.876 44.4261C170.364 44.4261 172.159 47.3948 172.159 51.5366C172.159 55.7073 170.335 58.7485 166.876 58.7485C163.532 58.7485 161.65 55.8521 161.65 51.5366Z" fill="#24292E"/>
<path d="M191.798 63.093C196.98 63.093 200.541 60.5587 201.467 56.6921L196.575 56.1418C195.865 58.0244 194.128 59.0091 191.87 59.0091C188.483 59.0091 186.24 56.779 186.196 52.9703H201.684V51.3628C201.684 43.5572 196.994 40.125 191.523 40.125C185.154 40.125 181 44.8026 181 51.6669C181 58.6471 185.096 63.093 191.798 63.093ZM186.211 49.4367C186.37 46.5983 188.469 44.2088 191.595 44.2088C194.606 44.2088 196.633 46.4101 196.661 49.4367H186.211Z" fill="#24292E"/>
<path d="M210.342 49.625C210.342 46.4101 212.282 44.5564 215.046 44.5564C217.753 44.5564 219.374 46.3377 219.374 49.3064V62.6585H224.614V48.4954C224.628 43.1662 221.589 40.125 217 40.125C213.671 40.125 211.384 41.718 210.371 44.1944H210.11V40.4146H205.102V62.6585H210.342V49.625Z" fill="#24292E"/>
<path d="M237.191 63.0495C241.012 63.0495 242.735 60.7759 243.56 59.154H243.878V62.6585H249.031V33H243.777V44.093H243.56C242.764 42.4855 241.128 40.125 237.205 40.125C232.067 40.125 228.029 44.1509 228.029 51.5655C228.029 58.8933 231.951 63.0495 237.191 63.0495ZM238.653 58.7485C235.193 58.7485 233.37 55.7073 233.37 51.5366C233.37 47.3948 235.165 44.4261 238.653 44.4261C242.025 44.4261 243.878 47.221 243.878 51.5366C243.878 55.8521 241.997 58.7485 238.653 58.7485Z" fill="#24292E"/>
<path d="M259.512 63.1075C263.001 63.1075 265.085 61.471 266.04 59.6029H266.214V62.6585H271.251V47.7713C271.251 41.8918 266.46 40.125 262.219 40.125C257.544 40.125 253.954 42.2104 252.796 46.2652L257.689 46.9604C258.21 45.4398 259.686 44.1364 262.248 44.1364C264.68 44.1364 266.012 45.3819 266.012 47.5686V47.6555C266.012 49.1616 264.434 49.234 260.511 49.654C256.198 50.1174 252.073 51.4062 252.073 56.4169C252.073 60.7904 255.271 63.1075 259.512 63.1075ZM260.873 59.2553C258.687 59.2553 257.124 58.2561 257.124 56.33C257.124 54.3171 258.876 53.4771 261.22 53.1441C262.596 52.9558 265.346 52.6082 266.026 52.0579V54.6791C266.026 57.1555 264.028 59.2553 260.873 59.2553Z" fill="#24292E"/>
<path d="M275.012 62.6585H280.165V59.154H280.469C281.294 60.7759 283.016 63.0495 286.838 63.0495C292.077 63.0495 296 58.8933 296 51.5655C296 44.1509 291.962 40.125 286.823 40.125C282.901 40.125 281.265 42.4855 280.469 44.093H280.252V33H275.012V62.6585ZM280.15 51.5366C280.15 47.221 282.003 44.4261 285.376 44.4261C288.864 44.4261 290.659 47.3948 290.659 51.5366C290.659 55.7073 288.835 58.7485 285.376 58.7485C282.032 58.7485 280.15 55.8521 280.15 51.5366Z" fill="#24292E"/>
<path d="M309.892 63.093C316.406 63.093 320.545 58.5023 320.545 51.6235C320.545 44.7302 316.406 40.125 309.892 40.125C303.379 40.125 299.239 44.7302 299.239 51.6235C299.239 58.5023 303.379 63.093 309.892 63.093ZM309.921 58.8933C306.317 58.8933 304.551 55.6784 304.551 51.609C304.551 47.5396 306.317 44.2812 309.921 44.2812C313.467 44.2812 315.233 47.5396 315.233 51.609C315.233 55.6784 313.467 58.8933 309.921 58.8933Z" fill="#24292E"/>
<path d="M334.781 40.4146H330.395V35.0854H325.155V40.4146H322V44.4695H325.155V56.8369C325.127 61.0221 328.166 63.0785 332.103 62.9627C333.594 62.9192 334.622 62.6296 335.186 62.4413L334.303 58.343C334.014 58.4154 333.42 58.5457 332.769 58.5457C331.452 58.5457 330.395 58.0823 330.395 55.968V44.4695H334.781V40.4146Z" fill="#24292E"/>
<path d="M48 33V30H43C42.4477 30 42 29.5523 42 29V22C42 21.4477 42.4477 21 43 21H50C50.5523 21 51 21.4477 51 22V33H66C67.6569 33 69 34.3431 69 36V48H71C71.5523 48 72 48.4477 72 49V59C72 59.5523 71.5523 60 71 60H69V66C69 67.6569 67.6569 69 66 69H24C22.3431 69 21 67.6569 21 66V60H19C18.4477 60 18 59.5523 18 59V49C18 48.4477 18.4477 48 19 48H21V36C21 34.3431 22.3431 33 24 33H48Z" fill="white"/>
<path d="M53.1432 56.6434C53.6157 57.116 54.3819 57.116 54.8544 56.6434L61.1432 50.3546C61.6157 49.8821 61.6157 49.116 61.1432 48.6434L59.8544 47.3546C59.3819 46.8821 58.6157 46.8821 58.1432 47.3546L53.9988 51.499L52.3544 49.8546C51.8819 49.3821 51.1157 49.3821 50.6432 49.8546L49.3544 51.1434C48.8819 51.616 48.8819 52.3821 49.3544 52.8546L53.1432 56.6434Z" fill="#0366D6"/>
<path d="M33.1432 56.6434C33.6157 57.116 34.3819 57.116 34.8544 56.6434L41.1432 50.3546C41.6157 49.8821 41.6157 49.116 41.1432 48.6434L39.8544 47.3546C39.3819 46.8821 38.6157 46.8821 38.1432 47.3546L33.9988 51.499L32.3544 49.8546C31.8819 49.3821 31.1157 49.3821 30.6432 49.8546L29.3544 51.1434C28.8819 51.616 28.8819 52.3821 29.3544 52.8546L33.1432 56.6434Z" fill="#0366D6"/>
</svg>
